# xmcd CD database file
# Copyright (C) 1993-1996 Ti Kan
#
# Track frame offsets:
#	150
#	12841
#	27228
#	40970
#	58393
#	70963
#	93768
#	103182
#	116220
#	135315
#	148371
#	157323
#	170202
#	184835
#	198504
#	214878
#
# Disc length: 3072 seconds
#
# Revision: 1
# Processed by: cddbd v1.4b41PL1 Copyright (c) Steve Scherf et al.
# Submitted via: CDValet v3.31 - Copyright (c) 1997 Greg Leichner
#
DISCID=fc0bfe10
DTITLE=Diverse Artiesten - *Super Trucker Songs Vol. 2 CD2*
DYEAR=1900
DGENRE=
TTITLE0=Roll Truck, Roll - Red Simpson
TTITLE1=Willy, Waylon And Me - Rob Nelson
TTITLE2=9'999'999 Tears - Laney Lee
TTITLE3=Convoy - Tom W. Stone
TTITLE4=King Of All The Highways - The Winston Brothers
TTITLE5=Teddy Bear (Call Teddy Bear At Number 4) - Tom W. Stone
TTITLE6=Motivation Man - Red Simpson
TTITLE7=Country Fair - Guitar Brothers
TTITLE8=A Heart That Is Broken - The Winston Brothers
TTITLE9=Female Trouble - The Winston Brothers
TTITLE10=Truckdrivin' Man - Hank Bridgestone
TTITLE11=Son-Of-A Truckdrivin' Son-Of-A Gun - Viking Truckers
TTITLE12=My Little Van - The Winston Brothers
TTITLE13=Stranger - The Winston Brothers
TTITLE14=Me And Bobby McGee - Rick Jackson
TTITLE15=Truckdriving Stud - The Winston Brothers
EXTD=
EXTT0=
EXTT1=
EXTT2=
EXTT3=
EXTT4=
EXTT5=
EXTT6=
EXTT7=
EXTT8=
EXTT9=
EXTT10=
EXTT11=
EXTT12=
EXTT13=
EXTT14=
EXTT15=
PLAYORDER=
